<svg width="108" height="109" viewBox="0 0 108 109" fill="none" xmlns="http://www.w3.org/2000/svg">
<path id="Vector" d="M69.4286 19.3674H108V27.1144H69.4286V19.3674ZM69.4286 73.5963H108V81.3433H69.4286V73.5963ZM69.4286 96.8372H108V104.584H69.4286V96.8372ZM27 0H19.2857V19.3674H0V27.1144H19.2857V46.4819H27V27.1144H46.2857V19.3674H27V0ZM39.8829 69.1031L24.9557 84.0935L10.1443 69.2193L5.28429 74.0999L20.0957 88.9741L5.16857 103.964L10.1829 109L25.11 94.0096L39.9986 108.961L44.8586 104.081L29.97 89.1677L44.8971 74.1386L39.8829 69.1031Z" fill="#FCCD46"/>
</svg>
