<svg width="101" height="97" viewBox="0 0 101 97" fill="none" xmlns="http://www.w3.org/2000/svg">
<path id="22 payment method" d="M98.5943 48.4955L88.9038 54.816V46.7596L94.2179 43.3004C94.5941 43.0461 94.8628 42.6442 94.9668 42.1803C95.0709 41.7164 95.002 41.2273 94.7748 40.8171L88.7092 30.1064C88.4784 29.6985 88.1062 29.4056 87.6743 29.2922C87.2425 29.1787 86.7863 29.254 86.4061 29.5013L74.0099 37.5758H57.499L79.8088 23.0259C80.1838 22.773 80.4523 22.3731 80.5572 21.9112C80.6622 21.4492 80.5953 20.9616 80.3707 20.5517L76.8867 14.395C76.6556 13.9874 76.2833 13.6949 75.8514 13.5818C75.4196 13.4687 74.9636 13.5442 74.5836 13.7917L38.1146 37.5758H15.1891L71.5961 0.788659C72.7355 0.0435183 74.104 -0.185376 75.4006 0.152301C76.6972 0.489977 77.8158 1.36658 78.5105 2.58939L100.284 41.0638C100.966 42.2913 101.171 43.7575 100.855 45.146C100.54 46.5346 99.7282 47.7343 98.596 48.4865L98.5943 48.4955ZM85.549 48.0597V91.5978C85.549 93.0306 85.0188 94.4046 84.075 95.4177C83.1313 96.4308 81.8513 97 80.5167 97H5.03229C3.69765 97 2.41766 96.4308 1.47392 95.4177C0.530187 94.4046 0 93.0306 0 91.5978V46.5795C0 45.1467 0.530187 43.7727 1.47392 42.7596C2.41766 41.7464 3.69765 41.1773 5.03229 41.1773H80.5167C81.6398 41.1932 82.7266 41.6067 83.6083 42.3537C84.4901 43.1007 85.1174 44.1392 85.393 45.3082C85.5471 46.2154 85.5994 47.1391 85.549 48.0597ZM41.9358 78.9927C42.2699 79.006 42.6001 78.9117 42.884 78.7221C43.1679 78.5325 43.3925 78.2561 43.529 77.9285C43.6656 77.6008 43.7078 77.2368 43.6502 76.8833C43.5927 76.5297 43.438 76.2026 43.2061 75.9441C42.9742 75.6855 42.6756 75.5073 42.3486 75.4323C42.0216 75.3572 41.6812 75.3888 41.3711 75.5229C41.0609 75.657 40.7952 75.8875 40.608 76.1849C40.4208 76.4823 40.3206 76.833 40.3204 77.1919C40.3201 77.6582 40.4883 78.1064 40.7896 78.4423C41.0908 78.7781 41.5017 78.9754 41.9358 78.9927ZM36.9035 78.9927C37.2376 79.006 37.5678 78.9117 37.8517 78.7221C38.1356 78.5325 38.3602 78.2561 38.4968 77.9285C38.6333 77.6008 38.6755 77.2368 38.6179 76.8833C38.5604 76.5297 38.4057 76.2026 38.1738 75.9441C37.9419 75.6855 37.6433 75.5073 37.3163 75.4323C36.9893 75.3572 36.6489 75.3888 36.3388 75.5229C36.0286 75.657 35.7629 75.8875 35.5757 76.1849C35.3885 76.4823 35.2883 76.833 35.2881 77.1919C35.2878 77.6582 35.456 78.1064 35.7573 78.4423C36.0586 78.7781 36.4694 78.9754 36.9035 78.9927ZM25.1615 78.9927C25.4956 79.006 25.8258 78.9117 26.1097 78.7221C26.3936 78.5325 26.6182 78.2561 26.7547 77.9285C26.8913 77.6008 26.9335 77.2368 26.8759 76.8833C26.8184 76.5297 26.6637 76.2026 26.4318 75.9441C26.1999 75.6855 25.9012 75.5073 25.5743 75.4323C25.2473 75.3572 24.9069 75.3888 24.5968 75.5229C24.2866 75.657 24.0209 75.8875 23.8337 76.1849C23.6465 76.4823 23.5463 76.833 23.5461 77.1919C23.5458 77.6582 23.714 78.1064 24.0153 78.4423C24.3165 78.7781 24.7274 78.9754 25.1615 78.9927ZM18.4517 77.1919C18.4394 77.5506 18.5271 77.9051 18.7038 78.2099C18.8804 78.5146 19.1379 78.7558 19.4431 78.9023C19.7483 79.0489 20.0873 79.0942 20.4167 79.0324C20.7461 78.9707 21.0507 78.8046 21.2916 78.5556C21.5324 78.3067 21.6985 77.9861 21.7684 77.6351C21.8383 77.2841 21.8089 76.9187 21.684 76.5857C21.559 76.2528 21.3443 75.9675 21.0672 75.7666C20.7902 75.5656 20.4635 75.4581 20.1292 75.4578C19.6948 75.4575 19.2773 75.6381 18.9645 75.9615C18.6516 76.2849 18.4678 76.726 18.4517 77.1919ZM8.38715 68.1883H18.4517C18.8966 68.1883 19.3233 67.9986 19.6379 67.6609C19.9524 67.3232 20.1292 66.8651 20.1292 66.3876V55.5832C20.1292 55.1056 19.9524 54.6475 19.6379 54.3098C19.3233 53.9721 18.8966 53.7824 18.4517 53.7824H8.38715C7.94719 53.799 7.52943 53.994 7.21814 54.3282C6.90684 54.6624 6.72516 55.1108 6.70972 55.5832V66.3876C6.72199 66.861 6.90265 67.3114 7.21461 67.6463C7.52657 67.9812 7.94615 68.1751 8.38715 68.1883ZM13.4194 77.1919C13.4071 77.5506 13.4948 77.9051 13.6715 78.2099C13.8481 78.5146 14.1056 78.7558 14.4108 78.9023C14.716 79.0489 15.055 79.0942 15.3844 79.0324C15.7138 78.9707 16.0184 78.8046 16.2593 78.5556C16.5001 78.3067 16.6662 77.9861 16.7361 77.6351C16.806 77.2841 16.7766 76.9187 16.6517 76.5857C16.5267 76.2528 16.312 75.9675 16.0349 75.7666C15.7579 75.5656 15.4312 75.4581 15.0969 75.4578C14.6625 75.4575 14.245 75.6381 13.9322 75.9615C13.6193 76.2849 13.4355 76.726 13.4194 77.1919ZM75.4844 84.3949C75.4844 83.9173 75.3076 83.4593 74.9931 83.1216C74.6785 82.7839 74.2518 82.5941 73.8069 82.5941H11.742C11.2971 82.5941 10.8705 82.7839 10.5559 83.1216C10.2413 83.4593 10.0646 83.9173 10.0646 84.3949C10.0646 84.8725 10.2413 85.3305 10.5559 85.6682C10.8705 86.0059 11.2971 86.1956 11.742 86.1956H73.8069C74.2518 86.1956 74.6785 86.0059 74.9931 85.6682C75.3076 85.3305 75.4844 84.8725 75.4844 84.3949ZM48.6455 77.1919C48.6579 76.8333 48.5701 76.4788 48.3935 76.174C48.2168 75.8693 47.9594 75.6281 47.6542 75.4816C47.3489 75.335 47.0099 75.2897 46.6805 75.3515C46.3511 75.4132 46.0465 75.5793 45.8056 75.8282C45.5648 76.0772 45.3988 76.3978 45.3289 76.7488C45.2589 77.0998 45.2883 77.4652 45.4133 77.7981C45.5382 78.1311 45.753 78.4164 46.03 78.6173C46.307 78.8183 46.6337 78.9258 46.9681 78.926C47.4024 78.9264 47.8199 78.7458 48.1328 78.4224C48.4456 78.099 48.6294 77.6579 48.6455 77.1919ZM53.6778 77.1919C53.6902 76.8333 53.6024 76.4788 53.4257 76.174C53.2491 75.8693 52.9917 75.6281 52.6864 75.4816C52.3812 75.335 52.0422 75.2897 51.7128 75.3515C51.3834 75.4132 51.0788 75.5793 50.8379 75.8282C50.5971 76.0772 50.4311 76.3978 50.3611 76.7488C50.2912 77.0998 50.3206 77.4652 50.4456 77.7981C50.5705 78.1311 50.7853 78.4164 51.0623 78.6173C51.3393 78.8183 51.666 78.9258 52.0004 78.926C52.4347 78.9264 52.8522 78.7458 53.1651 78.4224C53.4779 78.099 53.6617 77.6579 53.6778 77.1919ZM58.7101 77.1919C58.7224 76.8333 58.6347 76.4788 58.458 76.174C58.2814 75.8693 58.024 75.6281 57.7187 75.4816C57.4135 75.335 57.0745 75.2897 56.7451 75.3515C56.4157 75.4132 56.1111 75.5793 55.8702 75.8282C55.6294 76.0772 55.4634 76.3978 55.3934 76.7488C55.3235 77.0998 55.3529 77.4652 55.4779 77.7981C55.6028 78.1311 55.8175 78.4164 56.0946 78.6173C56.3716 78.8183 56.6983 78.9258 57.0326 78.926C57.467 78.9264 57.8845 78.7458 58.1973 78.4224C58.5102 78.099 58.694 77.6579 58.7101 77.1919ZM63.7424 77.1919C63.7547 76.8333 63.667 76.4788 63.4903 76.174C63.3137 75.8693 63.0562 75.6281 62.751 75.4816C62.4458 75.335 62.1068 75.2897 61.7774 75.3515C61.448 75.4132 61.1434 75.5793 60.9025 75.8282C60.6617 76.0772 60.4956 76.3978 60.4257 76.7488C60.3558 77.0998 60.3852 77.4652 60.5101 77.7981C60.6351 78.1311 60.8498 78.4164 61.1269 78.6173C61.4039 78.8183 61.7306 78.9258 62.0649 78.926C62.4993 78.9264 62.9168 78.7458 63.2296 78.4224C63.5425 78.099 63.7263 77.6579 63.7424 77.1919ZM68.7747 77.1919C68.787 76.8333 68.6993 76.4788 68.5226 76.174C68.346 75.8693 68.0885 75.6281 67.7833 75.4816C67.4781 75.335 67.1391 75.2897 66.8097 75.3515C66.4803 75.4132 66.1757 75.5793 65.9348 75.8282C65.694 76.0772 65.5279 76.3978 65.458 76.7488C65.3881 77.0998 65.4175 77.4652 65.5424 77.7981C65.6674 78.1311 65.8821 78.4164 66.1592 78.6173C66.4362 78.8183 66.7629 78.9258 67.0972 78.926C67.5316 78.9264 67.9491 78.7458 68.2619 78.4224C68.5748 78.099 68.7586 77.6579 68.7747 77.1919ZM73.8069 77.1919C73.8193 76.8333 73.7316 76.4788 73.5549 76.174C73.3783 75.8693 73.1208 75.6281 72.8156 75.4816C72.5104 75.335 72.1713 75.2897 71.842 75.3515C71.5126 75.4132 71.2079 75.5793 70.9671 75.8282C70.7263 76.0772 70.5602 76.3978 70.4903 76.7488C70.4204 77.0998 70.4498 77.4652 70.5747 77.7981C70.6997 78.1311 70.9144 78.4164 71.1915 78.6173C71.4685 78.8183 71.7952 78.9258 72.1295 78.926C72.5639 78.9264 72.9814 78.7458 73.2942 78.4224C73.6071 78.099 73.7909 77.6579 73.8069 77.1919ZM73.8069 55.5832H43.6132C43.1683 55.5832 42.7417 55.7729 42.4271 56.1106C42.1125 56.4483 41.9358 56.9063 41.9358 57.3839C41.9358 57.8615 42.1125 58.3195 42.4271 58.6572C42.7417 58.9949 43.1683 59.1846 43.6132 59.1846H73.8069C74.2518 59.1846 74.6785 58.9949 74.9931 58.6572C75.3076 58.3195 75.4844 57.8615 75.4844 57.3839C75.4844 56.9063 75.3076 56.4483 74.9931 56.1106C74.6785 55.7729 74.2518 55.5832 73.8069 55.5832ZM73.8069 50.181H52.0004C51.5555 50.181 51.1288 50.3707 50.8142 50.7084C50.4996 51.0461 50.3229 51.5041 50.3229 51.9817C50.3229 52.4593 50.4996 52.9173 50.8142 53.255C51.1288 53.5927 51.5555 53.7824 52.0004 53.7824H73.8069C74.2518 53.7824 74.6785 53.5927 74.9931 53.255C75.3076 52.9173 75.4844 52.4593 75.4844 51.9817C75.4844 51.5041 75.3076 51.0461 74.9931 50.7084C74.6785 50.3707 74.2518 50.181 73.8069 50.181ZM13.3574 64.5868H16.7743V62.7861H14.2766C14.0684 63.4384 13.7575 64.0475 13.3574 64.5868ZM10.0646 63.103C10.3631 62.8823 10.6164 62.5982 10.8089 62.2684C11.0013 61.9386 11.1288 61.57 11.1834 61.1852C11.0686 60.3586 10.6694 59.6082 10.0646 59.082V63.103ZM14.1542 59.1846H16.7743V57.3839H13.1544C13.569 57.9289 13.908 58.5354 14.1609 59.1846H14.1542Z" fill="#FCCD46"/>
</svg>
