<svg width="120" height="105" viewBox="0 0 120 105" fill="none" xmlns="http://www.w3.org/2000/svg">
<g id="Group 15">
<path id="Vector" d="M117.845 104.506H2.15558C1.58738 104.506 1.04245 104.28 0.640677 103.879C0.2389 103.477 0.0131836 102.932 0.0131836 102.364V24.4662C0.0131836 23.898 0.2389 23.3531 0.640677 22.9513C1.04245 22.5496 1.58738 22.3238 2.15558 22.3238H117.845C118.413 22.3238 118.958 22.5496 119.36 22.9513C119.762 23.3531 119.987 23.898 119.987 24.4662V102.364C119.987 102.932 119.762 103.477 119.36 103.879C118.958 104.28 118.413 104.506 117.845 104.506ZM4.29797 100.221H115.702V26.6086H4.29797V100.221Z" fill="#FCCD46"/>
<path id="Vector_2" d="M117.845 26.6085H2.15535C1.7949 26.6057 1.441 26.5119 1.12643 26.3358C0.811853 26.1598 0.546776 25.9073 0.355741 25.6016C0.147796 25.2874 0.0264153 24.9238 0.00384647 24.5477C-0.0187223 24.1715 0.0583189 23.7961 0.227197 23.4592L10.9392 1.19975C11.1158 0.839175 11.3903 0.535508 11.7312 0.32338C12.0721 0.111252 12.4658 -0.000799264 12.8673 4.29171e-06H107.133C107.534 -0.000799264 107.928 0.111252 108.269 0.32338C108.61 0.535508 108.884 0.839175 109.061 1.19975L119.773 23.4592C119.942 23.7961 120.019 24.1715 119.996 24.5477C119.974 24.9238 119.852 25.2874 119.644 25.6016C119.453 25.9073 119.188 26.1598 118.874 26.3358C118.559 26.5119 118.205 26.6057 117.845 26.6085ZM5.54033 22.3238H114.46L105.89 4.37049H14.1742L5.54033 22.3238Z" fill="#FCCD46"/>
<path id="Vector_3" d="M59.9999 50.1749H49.0523C48.4841 50.1749 47.9392 49.9492 47.5374 49.5474C47.1356 49.1456 46.9099 48.6007 46.9099 48.0325V24.4662L49.288 2.03532C49.3174 1.75532 49.4017 1.48387 49.536 1.23648C49.6704 0.989081 49.8522 0.770598 50.0711 0.593515C50.29 0.416432 50.5416 0.284224 50.8116 0.204449C51.0816 0.124673 51.3646 0.0988944 51.6446 0.128587C51.9265 0.155352 52.2003 0.237727 52.4501 0.37095C52.7 0.504173 52.9209 0.685599 53.1002 0.904742C53.2795 1.12389 53.4136 1.3764 53.4947 1.64768C53.5758 1.91896 53.6023 2.20362 53.5728 2.48522L51.1947 24.6162V45.8901H59.9999C60.5681 45.8901 61.1131 46.1158 61.5148 46.5176C61.9166 46.9194 62.1423 47.4643 62.1423 48.0325C62.1423 48.6007 61.9166 49.1456 61.5148 49.5474C61.1131 49.9492 60.5681 50.1749 59.9999 50.1749Z" fill="#FCCD46"/>
<path id="Vector_4" d="M70.9477 50.175H60.0001C59.4319 50.175 58.8869 49.9493 58.4852 49.5475C58.0834 49.1457 57.8577 48.6008 57.8577 48.0326C57.8577 47.4644 58.0834 46.9195 58.4852 46.5177C58.8869 46.1159 59.4319 45.8902 60.0001 45.8902H68.8053V24.6162L66.4272 2.48531C66.3676 1.91711 66.5361 1.34848 66.8957 0.904519C67.2553 0.460556 67.7765 0.177624 68.3447 0.117963C68.9129 0.0583021 69.4815 0.226801 69.9255 0.586391C70.3694 0.945981 70.6524 1.46721 70.712 2.0354L73.0258 24.2949V48.0326C73.0261 48.5898 72.8092 49.1253 72.4212 49.5252C72.0332 49.9252 71.5047 50.1583 70.9477 50.175ZM104.99 39.3131H92.136C91.5678 39.3131 91.0229 39.0873 90.6211 38.6856C90.2193 38.2838 89.9936 37.7389 89.9936 37.1707C89.9936 36.6025 90.2193 36.0575 90.6211 35.6558C91.0229 35.254 91.5678 35.0283 92.136 35.0283H104.99C105.559 35.0283 106.103 35.254 106.505 35.6558C106.907 36.0575 107.133 36.6025 107.133 37.1707C107.133 37.7389 106.907 38.2838 106.505 38.6856C106.103 39.0873 105.559 39.3131 104.99 39.3131ZM104.99 50.175H92.136C91.5678 50.175 91.0229 49.9493 90.6211 49.5475C90.2193 49.1457 89.9936 48.6008 89.9936 48.0326C89.9936 47.4644 90.2193 46.9195 90.6211 46.5177C91.0229 46.1159 91.5678 45.8902 92.136 45.8902H104.99C105.559 45.8902 106.103 46.1159 106.505 46.5177C106.907 46.9195 107.133 47.4644 107.133 48.0326C107.133 48.6008 106.907 49.1457 106.505 49.5475C106.103 49.9493 105.559 50.175 104.99 50.175Z" fill="#FCCD46"/>
</g>
</svg>
