<svg width="184" height="102" viewBox="0 0 184 102" fill="none" xmlns="http://www.w3.org/2000/svg">
<g id="Group 16">
<path id="Vector" d="M162.734 14.6501C162.542 14.395 162.294 14.1878 162.009 14.0452C161.723 13.9025 161.409 13.8283 161.09 13.8283H128.584V2.05472C128.584 1.50977 128.368 0.98715 127.982 0.601815C127.597 0.216481 127.074 0 126.53 0H29.7112C29.1663 0 28.6437 0.216481 28.2583 0.601815C27.873 0.98715 27.6565 1.50977 27.6565 2.05472V13.8283H15.9241C15.3791 13.8283 14.8565 14.0447 14.4712 14.4301C14.0858 14.8154 13.8693 15.338 13.8693 15.883C13.8693 16.4279 14.0858 16.9505 14.4712 17.3359C14.8565 17.7212 15.3791 17.9377 15.9241 17.9377H27.6976V27.5949H8.97912C8.43417 27.5949 7.91155 27.8113 7.52621 28.1967C7.14088 28.582 6.9244 29.1046 6.9244 29.6496C6.9244 30.1945 7.14088 30.7172 7.52621 31.1025C7.91155 31.4878 8.43417 31.7043 8.97912 31.7043H27.6565V41.4231H2.05472C1.50977 41.4231 0.987148 41.6396 0.601813 42.0249C0.216479 42.4103 0 42.9329 0 43.4778C0 44.0228 0.216479 44.5454 0.601813 44.9307C0.987148 45.3161 1.50977 45.5326 2.05472 45.5326H27.6565V85.127C27.6565 85.6719 27.873 86.1945 28.2583 86.5799C28.6437 86.9652 29.1663 87.1817 29.7112 87.1817H41.6286C42.1095 91.0168 43.9742 94.5443 46.8723 97.1017C49.7704 99.6591 53.5026 101.07 57.3677 101.07C61.2329 101.07 64.965 99.6591 67.8631 97.1017C70.7613 94.5443 72.6259 91.0168 73.1069 87.1817H83.1339C83.6657 90.9694 85.5483 94.4374 88.4348 96.9469C91.3213 99.4564 95.0174 100.838 98.8422 100.838C102.667 100.838 106.363 99.4564 109.25 96.9469C112.136 94.4374 114.019 90.9694 114.551 87.1817H138.447C138.822 91.1096 140.648 94.7566 143.568 97.4107C146.487 100.065 150.292 101.535 154.237 101.535C158.183 101.535 161.987 100.065 164.907 97.4107C167.827 94.7566 169.653 91.1096 170.028 87.1817H181.945C182.49 87.1817 183.013 86.9652 183.398 86.5799C183.784 86.1945 184 85.6719 184 85.127V43.5395C184 43.0949 183.856 42.6623 183.589 42.3066L162.734 14.6501ZM57.3677 96.8389C55.0365 96.8388 52.7578 96.1467 50.8203 94.8503C48.8829 93.5539 47.3739 91.7114 46.4846 89.5565C45.5954 87.4016 45.3658 85.0312 45.8251 82.7457C46.2844 80.4601 47.4119 78.3624 49.0646 76.7184C50.7174 75.0743 52.821 73.9578 55.1088 73.5106C57.3967 73.0632 59.7659 73.3052 61.9161 74.2058C64.0664 75.1064 65.9008 76.625 67.1871 78.5692C68.4734 80.5135 69.1535 82.7958 69.1413 85.127C69.1088 88.23 67.8548 91.1952 65.6509 93.3798C63.447 95.5645 60.4709 96.7925 57.3677 96.7978V96.8389ZM98.8525 96.8389C96.5213 96.8388 94.2426 96.1467 92.3051 94.8503C90.3676 93.5539 88.8587 91.7114 87.9694 89.5565C87.0801 87.4016 86.8506 85.0312 87.3099 82.7457C87.7692 80.4601 88.8966 78.3624 90.5494 76.7184C92.2021 75.0743 94.3057 73.9578 96.5936 73.5106C98.8815 73.0632 101.251 73.3052 103.401 74.2058C105.551 75.1064 107.386 76.625 108.672 78.5692C109.958 80.5135 110.638 82.7958 110.626 85.127C110.594 88.23 109.34 91.1952 107.136 93.3798C104.932 95.5645 101.956 96.7925 98.8525 96.7978V96.8389ZM124.475 15.883V83.0723H114.551C114.521 82.851 114.48 82.6315 114.427 82.4147C114.427 82.2093 114.427 82.0038 114.427 81.7983C114.369 81.4842 114.287 81.1751 114.181 80.8737C114.145 80.6926 114.097 80.5141 114.037 80.3395C113.914 79.9696 113.79 79.5998 113.646 79.2299L113.523 78.9217C113.338 78.4697 113.112 78.0176 112.886 77.5862L112.701 77.2779C112.516 76.9492 112.311 76.641 112.105 76.3328C111.9 76.0246 111.9 76.0451 111.797 75.9013L111.242 75.141L110.852 74.7095C110.667 74.4835 110.462 74.2575 110.256 74.052L109.825 73.6206L109.188 73.0452L108.695 72.6548C108.481 72.4674 108.255 72.2957 108.017 72.1412L107.503 71.7918L106.784 71.3604C106.603 71.2377 106.41 71.1344 106.208 71.0522C105.965 70.9084 105.711 70.7847 105.448 70.6823L104.873 70.4152L104.051 70.107L103.455 69.9221L102.572 69.696L101.976 69.5522L100.969 69.3878H100.455C99.9351 69.3566 99.4136 69.3566 98.8936 69.3878C98.3735 69.3571 97.8521 69.3571 97.332 69.3878H96.8389L95.8115 69.5522L95.2362 69.696L94.3526 69.9221L93.7568 70.1275L92.9349 70.4152L92.3596 70.6823C92.0965 70.7847 91.8423 70.9084 91.5993 71.0522C91.4012 71.1425 91.209 71.2455 91.024 71.3604L90.3049 71.7918L89.7706 72.1412C89.5427 72.3009 89.3233 72.4724 89.1131 72.6548L88.62 73.0452L87.983 73.6206L87.531 74.052L86.9557 74.689C86.8324 74.8534 86.6886 74.9972 86.5653 75.141C86.442 75.2849 86.1954 75.6342 86.0105 75.8807C85.8256 76.1273 85.7845 76.1889 85.6817 76.3328C85.579 76.4766 85.3119 76.9492 85.127 77.2574L84.9215 77.5862C84.6955 78.0382 84.4695 78.4697 84.2845 78.9217C84.2845 78.9217 84.2845 79.1477 84.1612 79.2299C84.038 79.3121 83.8736 79.9696 83.7709 80.3395C83.6681 80.7093 83.7709 80.6888 83.6065 80.8737C83.4421 81.0586 83.4421 81.4696 83.3805 81.7983C83.3188 82.1271 83.3805 82.2093 83.2777 82.4147C83.2248 82.6315 83.1836 82.851 83.1544 83.0723H73.1274L73.0041 82.4147C73.0041 82.2093 73.0041 82.0038 72.9014 81.7983C72.7987 81.5928 72.737 81.1614 72.6548 80.8737C72.6189 80.6926 72.5709 80.5141 72.511 80.3395C72.3877 79.9696 72.2644 79.5998 72.1206 79.2299C71.9768 78.8601 72.1206 79.0245 71.9973 78.9217C71.7918 78.4697 71.5864 78.0382 71.3604 77.5862L71.1549 77.2574C70.97 76.9492 70.785 76.641 70.5796 76.3328L70.2714 75.8807L69.7166 75.141C69.5933 74.9972 69.4495 74.8534 69.3262 74.689L68.7303 74.052L68.2783 73.6206L67.6619 73.0452L67.1687 72.6548L66.4907 72.1412L65.9564 71.7918C65.7304 71.6275 65.4839 71.5042 65.2578 71.3604L64.6825 71.0522C64.4396 70.9084 64.1853 70.7847 63.9223 70.6823L63.3264 70.4152L62.5251 70.1275L61.9292 69.9221L61.1279 69.5933L60.532 69.4495L59.5252 69.2851H59.0115C58.4914 69.2539 57.97 69.2539 57.4499 69.2851C56.9298 69.2544 56.4084 69.2544 55.8883 69.2851H55.3747L54.3678 69.4495L53.7925 69.5933L52.909 69.8193L52.3131 70.0248L51.4912 70.3125L50.8954 70.5796L50.1351 70.9494L49.5803 71.2576L48.8612 71.6891L48.327 72.0384C48.0991 72.1982 47.8796 72.3696 47.6695 72.5521L47.1558 72.9425L46.5394 73.5178L46.0873 73.9493C45.8819 74.1548 45.6969 74.3808 45.512 74.5863L45.1216 75.0383C44.9161 75.2849 44.7518 75.5314 44.5668 75.778C44.3819 76.0246 44.3408 76.0862 44.2381 76.23C44.1353 76.3739 43.8477 76.8465 43.6833 77.1547L43.4778 77.4834C43.2406 77.9163 43.0279 78.3622 42.8409 78.819C42.7945 78.9195 42.7533 79.0224 42.7176 79.1272C42.5738 79.497 42.4299 79.8669 42.3066 80.2367C42.1834 80.6066 42.3066 80.586 42.1628 80.771C42.019 80.9559 41.9984 81.3668 41.9368 81.6956L41.8135 82.312C41.802 82.531 41.802 82.7505 41.8135 82.9695H31.9509V45.5942H64.2921C64.8371 45.5942 65.3597 45.3777 65.745 44.9924C66.1304 44.607 66.3468 44.0844 66.3468 43.5395C66.3468 42.9945 66.1304 42.4719 65.745 42.0866C65.3597 41.7012 64.8371 41.4848 64.2921 41.4848H31.7659V31.7043H98.8525C99.3974 31.7043 99.9201 31.4878 100.305 31.1025C100.691 30.7172 100.907 30.1945 100.907 29.6496C100.907 29.1046 100.691 28.582 100.305 28.1967C99.9201 27.8113 99.3974 27.5949 98.8525 27.5949H31.7659V17.9377H112.681C113.226 17.9377 113.748 17.7212 114.134 17.3359C114.519 16.9505 114.735 16.4279 114.735 15.883C114.735 15.338 114.519 14.8154 114.134 14.4301C113.748 14.0447 113.226 13.8283 112.681 13.8283H31.7659V4.10944H124.475V15.883ZM154.186 96.7978C151.851 96.8058 149.567 96.1196 147.623 94.8262C145.68 93.5329 144.164 91.6909 143.27 89.5343C142.376 87.3777 142.143 85.0039 142.601 82.7145C143.059 80.4252 144.187 78.3238 145.842 76.6773C147.497 75.0307 149.605 73.9135 151.896 73.4676C154.188 73.0216 156.561 73.2671 158.713 74.1727C160.864 75.0784 162.698 76.6034 163.982 78.5539C165.265 80.5044 165.939 82.7924 165.918 85.127C165.886 88.2229 164.638 91.182 162.443 93.3654C160.248 95.549 157.282 96.7818 154.186 96.7978ZM179.788 83.0723H170.028L169.905 82.4147C169.905 82.2093 169.905 82.0038 169.781 81.7983C169.658 81.5928 169.638 81.1614 169.555 80.8737C169.473 80.586 169.555 80.5038 169.411 80.3395C169.268 80.1751 169.144 79.5998 169.001 79.2299C168.857 78.8601 169.001 79.0245 169.001 78.9217C168.795 78.4697 168.59 78.0382 168.343 77.5862C168.282 77.4721 168.213 77.3622 168.138 77.2574C167.973 76.9423 167.788 76.6341 167.583 76.3328L167.254 75.8807L166.72 75.141L166.309 74.689C166.124 74.4835 165.939 74.2575 165.734 74.052L165.282 73.6206L164.665 73.0452L164.151 72.6548C163.941 72.4724 163.722 72.3009 163.494 72.1412L162.96 71.7918C162.727 71.636 162.487 71.492 162.241 71.3604L161.686 71.0522C161.441 70.9124 161.187 70.7888 160.926 70.6823L160.33 70.4152L159.508 70.1275L158.912 69.9221L158.028 69.696L157.453 69.5522L156.446 69.3878H155.933C154.894 69.2782 153.848 69.2782 152.809 69.3878H152.296L151.289 69.5522L150.714 69.696L149.809 69.9221L149.234 70.107L148.412 70.4152L147.816 70.6823C147.555 70.7888 147.301 70.9124 147.056 71.0522C146.863 71.139 146.677 71.2421 146.501 71.3604C146.255 71.492 146.015 71.636 145.782 71.7918L145.248 72.1412L144.57 72.6548L144.077 73.0452L143.44 73.6206L143.008 74.052C142.803 74.2575 142.618 74.4835 142.413 74.7095L142.022 75.141L141.467 75.9013L141.159 76.3328C140.954 76.641 140.769 76.9492 140.584 77.2779C140.515 77.376 140.453 77.479 140.399 77.5862C140.152 78.0176 139.947 78.4697 139.741 78.9217V79.2299C139.598 79.5998 139.454 79.9696 139.33 80.3395C139.271 80.5141 139.222 80.6926 139.187 80.8737C139.104 81.1614 139.022 81.4696 138.94 81.7983C138.94 82.0038 138.94 82.2093 138.94 82.4147L138.817 83.0723H128.584V17.9377H160.063L179.788 44.2175V83.0723Z" fill="#FCCD46"/>
<path id="Vector_2" d="M155.255 27.5948H137.975C137.43 27.5948 136.907 27.8113 136.522 28.1966C136.136 28.5819 135.92 29.1045 135.92 29.6495V50.4021C135.92 50.9471 136.136 51.4697 136.522 51.855C136.907 52.2404 137.43 52.4569 137.975 52.4569H165.631C165.981 52.4558 166.325 52.3652 166.631 52.1937C166.936 52.0222 167.193 51.7755 167.376 51.477C167.559 51.1785 167.663 50.8381 167.678 50.4882C167.692 50.1382 167.617 49.7903 167.46 49.4775L157.186 28.7249C157.008 28.37 156.731 28.0744 156.388 27.8738C156.045 27.6733 155.651 27.5763 155.255 27.5948ZM140.029 48.4091V31.7042H153.981L162.2 48.3474L140.029 48.4091ZM96.3254 61.0867C96.2583 60.9781 96.1668 60.8867 96.0583 60.8196C95.9574 60.7915 95.8509 60.7915 95.7501 60.8196H84.3464L88.4558 56.4841C89.7361 55.188 90.9369 53.8157 92.0516 52.3747C92.841 51.3696 93.5292 50.2891 94.1063 49.1488C94.5593 48.3061 94.8782 47.398 95.0514 46.4571C95.198 45.6364 95.2736 44.8046 95.2775 43.9709C95.2814 43.0727 95.1212 42.1814 94.8049 41.3408C94.4985 40.5242 94.0223 39.7818 93.4077 39.1628C92.731 38.5163 91.9259 38.0193 91.0448 37.704C90.0197 37.3183 88.9346 37.1166 87.8394 37.1081C87.0791 37.1054 86.321 37.1881 85.5792 37.3547C84.8763 37.4849 84.188 37.6845 83.5245 37.9506C83.0041 38.1451 82.5021 38.3858 82.0245 38.6697C81.727 38.8358 81.4451 39.0283 81.1821 39.245C81.0554 39.3379 80.9502 39.457 80.8739 39.5943C80.8098 39.6887 80.7612 39.7928 80.7301 39.9025C80.7067 40.0247 80.7067 40.1502 80.7301 40.2724C80.719 40.4503 80.719 40.6287 80.7301 40.8066C80.7064 41.0457 80.7064 41.2866 80.7301 41.5258C80.746 41.6934 80.7805 41.8588 80.8328 42.0189C80.8793 42.1175 80.9417 42.2078 81.0177 42.286C81.1043 42.3158 81.1983 42.3158 81.2848 42.286C81.5641 42.2371 81.826 42.1168 82.0451 41.9367C82.3944 41.7107 82.8259 41.4641 83.319 41.197C83.894 40.897 84.4917 40.6428 85.1066 40.4368C85.8431 40.1983 86.6133 40.0804 87.3874 40.0875C88.0475 40.0807 88.7029 40.1992 89.3188 40.4368C89.8444 40.6414 90.3156 40.9649 90.6954 41.3819C91.0676 41.7704 91.3546 42.2323 91.5379 42.738C91.7443 43.2613 91.849 43.8193 91.8461 44.3818C91.8456 45.0107 91.7767 45.6376 91.6406 46.2516C91.4862 47.0179 91.2233 47.7582 90.8598 48.4502C90.3886 49.4009 89.8242 50.3025 89.175 51.1418C88.2833 52.3262 87.3083 53.4455 86.2573 54.491L81.0383 59.8744C80.8739 60.0593 80.7301 60.2237 80.6273 60.3675L80.3602 60.8401C80.2931 61.0112 80.2516 61.1912 80.2369 61.3743C80.2243 61.6139 80.2243 61.8539 80.2369 62.0935C80.213 62.3395 80.213 62.5872 80.2369 62.8332C80.2787 63.0047 80.3557 63.1656 80.463 63.3058C80.565 63.4114 80.6923 63.4892 80.8328 63.5318C80.9964 63.5543 81.1623 63.5543 81.3259 63.5318H95.709C95.8164 63.5626 95.9303 63.5626 96.0377 63.5318C96.1456 63.4613 96.2311 63.3615 96.2843 63.2441C96.3511 63.093 96.3993 62.9343 96.4281 62.7715C96.4403 62.5525 96.4403 62.333 96.4281 62.114C96.4397 61.9019 96.4397 61.6892 96.4281 61.4771C96.4053 61.3442 96.3709 61.2136 96.3254 61.0867ZM113.482 37.4163C113.085 37.3926 112.687 37.3926 112.291 37.4163H111.222C110.969 37.3994 110.715 37.3994 110.462 37.4163C110.283 37.465 110.111 37.5339 109.948 37.6218C109.833 37.6962 109.735 37.7942 109.66 37.9095L100.312 53.8952L100.065 54.4088C100.005 54.5624 99.9568 54.7204 99.9211 54.8814C99.8997 55.0657 99.8997 55.2519 99.9211 55.4362C99.9211 55.6417 99.9211 55.8677 99.9211 56.1348C99.9075 56.3949 99.9075 56.6555 99.9211 56.9156C99.9462 57.0851 100.009 57.2467 100.106 57.3882C100.182 57.4864 100.28 57.5641 100.394 57.6142C100.53 57.6389 100.669 57.6389 100.805 57.6142H111.51V63.1209C111.48 63.2074 111.48 63.3014 111.51 63.388C111.573 63.4806 111.668 63.5465 111.777 63.5729C111.946 63.6448 112.127 63.6865 112.311 63.6962C112.585 63.7194 112.86 63.7194 113.133 63.6962C113.42 63.7198 113.709 63.7198 113.996 63.6962C114.18 63.6865 114.361 63.6448 114.53 63.5729C114.651 63.5472 114.759 63.4821 114.838 63.388C114.859 63.3002 114.859 63.2087 114.838 63.1209V57.6758H117.797C117.918 57.6749 118.036 57.6371 118.136 57.5673C118.235 57.4976 118.31 57.3992 118.352 57.2855C118.605 56.6239 118.605 55.8923 118.352 55.2307C118.298 55.1291 118.219 55.0433 118.121 54.982C118.024 54.9207 117.912 54.886 117.797 54.8814H114.941V38.0738C114.94 38.0132 114.924 37.9538 114.895 37.9003C114.867 37.8468 114.826 37.8007 114.777 37.7656C114.637 37.6584 114.476 37.5814 114.304 37.5396L113.482 37.4163ZM111.428 54.7992H102.983L111.407 40.4162L111.428 54.7992Z" fill="#FCCD46"/>
</g>
</svg>
