<svg width="22" height="16" viewBox="0 0 22 16" fill="none" xmlns="http://www.w3.org/2000/svg">
<path d="M15.5 2.75862C14.0174 1.65407 12.3677 1 10.5 1C6.5 1 3.5 4 1 8C2.33267 10.1323 3.80743 11.9804 5.5 13.2414" stroke="#222628" stroke-width="1.4" stroke-linecap="round" stroke-linejoin="round"/>
<path d="M8.5 15C14 15.5 18 12 20.5 8C19.1673 5.86772 18 5.00001 18 5.00001" stroke="#222628" stroke-width="1.4" stroke-linecap="round" stroke-linejoin="round"/>
<path d="M8.87871 10.1213C8.60014 9.84274 8.37916 9.51203 8.2284 9.14805C8.07763 8.78407 8.00004 8.39397 8.00004 8C8.00004 7.60603 8.07763 7.21593 8.2284 6.85195C8.37916 6.48797 8.60014 6.15726 8.87871 5.87868C9.15729 5.6001 9.48801 5.37913 9.85199 5.22836C10.216 5.0776 10.6061 5 11 5C11.394 5 11.7841 5.0776 12.1481 5.22836C12.5121 5.37913 12.8428 5.6001 13.1214 5.87868L11 8L8.87871 10.1213Z" stroke="#222628" stroke-width="1.4"/>
<line x1="18" y1="0.989949" x2="3.98995" y2="15" stroke="#222628" stroke-width="1.4" stroke-linecap="round"/>
<path d="M14.3633 8.63681C14.3633 8.63681 14.4266 9.57349 13.5532 10.4469C12.6799 11.3202 11.7432 11.2569 11.7432 11.2569" stroke="#222628" stroke-width="1.4" stroke-linecap="round"/>
</svg>
